/* XPM */
static char *result[] = {
/* columns rows colors chars-per-pixel */
"48 48 14 1 ",
"  c #110A03",
". c #3E3030",
"X c #6D5D5B",
"o c #756C4A",
"O c #853E33",
"+ c #F07508",
"@ c #CA7538",
"# c #FBC531",
"$ c #FFF23B",
"% c #9D916D",
"& c #F5B97D",
"* c #B0A28D",
"= c #C4B493",
"- c white",
/* pixels */
"-                                              -",
" $$ ======== &&&&&& $$$$$$$$ $$$$$$ ******** && ",
" #+ =%%%%%%o &@@@@O $######+ $####+ *XXXXXX. &@ ",
" #+ =%%%%%%o &@@@@O $######+ $####+ *XXXXXX. &@ ",
" ++ oooooooo OOOOOO ++++++++ ++++++ ........ OO ",
"                                                ",
" &&&& $$$$ $$$$$$$$$$ $$$$ &&&&&&&&&& $$$$ ==== ",
" &@@O $##+ $########+ $##+ &@@@@@@@@O $##+ =%%o ",
" &@@O $##+ $########+ $##+ &@@@@@@@@O $##+ =%%o ",
" OOOO ++++ ++++++++++ ++++ OOOOOOOOOO ++++ oooo ",
"                                                ",
" $$ &&&&&&&& ****** $$$$$$$$ ====== $$$$$$$$ $$ ",
" #+ &@@@@@@O *XXXX. $######+ =%%%%o $######+ $# ",
" #+ &@@@@@@O *XXXX. $######+ =%%%%o $######+ $# ",
" #+ OOOOOOOO *XXXX. ++++++++ =%%%%o ++++++++ $# ",
" ++          ......          oooooo          ++ ",
"    $$$$$$$$        &&&&&&&&        $$$$$$$$    ",
" ** $######+ $$$$$$ &@@@@@@O $$$$$$ $######+ == ",
" X. $######+ $####+ &@@@@@@O $####+ $######+ =% ",
" X. $######+ $####+ &@@@@@@O $####+ $######+ =% ",
" .. ++++++++ ++++++ OOOOOOOO ++++++ ++++++++ oo ",
"                                                ",
" ==== $$$$ &&&&&&&&&& ==== ********** $$$$ &&&& ",
" =%%o $##+ &@@@@@@@@O =%%o *XXXXXXXX. $##+ &@@O ",
" =%%o $##+ &@@@@@@@@O =%%o *XXXXXXXX. $##+ &@@O ",
" oooo ++++ OOOOOOOOOO oooo .......... ++++ OOOO ",
"                                                ",
" && $$$$$$$$ $$$$$$ $$$$$$$$ &&&&&& ======== ** ",
" @O $######+ $####+ $######+ &@@@@O =%%%%%%o *X ",
" @O $######+ $####+ $######+ &@@@@O =%%%%%%o *X ",
" OO $######+ ++++++ $######+ OOOOOO =%%%%%%o .. ",
"    ++++++++        ++++++++        oooooooo    ",
" $$          &&&&&&          $$$$$$          $$ ",
" #+ ******** &@@@@O $$$$$$$$ $####+ $$$$$$$$ $# ",
" #+ *XXXXXX. &@@@@O $######+ $####+ $######+ $# ",
" #+ *XXXXXX. &@@@@O $######+ $####+ $######+ $# ",
" ++ ........ OOOOOO ++++++++ ++++++ ++++++++ ++ ",
"                                                ",
" &&&& $$$$ ========== **** $$$$$$$$$$ &&&& $$$$ ",
" &@@O $##+ =%%%%%%%%o *XX. $########+ &@@O $##+ ",
" &@@O $##+ =%%%%%%%%o *XX. $########+ &@@O $##+ ",
" OOOO ++++ oooooooooo .... ++++++++++ OOOO ++++ ",
"                                                ",
" $$ $$$$$$$$ $$$$$$ &&&&&&&& ====== $$$$$$$$ == ",
" #+ $######+ $####+ &@@@@@@O =%%%%o $######+ =% ",
" #+ $######+ $####+ &@@@@@@O =%%%%o $######+ =% ",
" ++ ++++++++ ++++++ OOOOOOOO oooooo ++++++++ oo ",
"-                                              -"
};
