/* XPM */
static char *result[] = {
/* columns rows colors chars-per-pixel */
"48 48 25 1 ",
"  c black",
". c #EB5700",
"X c #EC5A00",
"o c #ED6100",
"O c #FF7803",
"+ c #FF8504",
"@ c #FF8F09",
"# c #F9BB2C",
"$ c #FAB92E",
"% c #FABB2E",
"& c #FABC2F",
"* c #FABF2F",
"= c #FCCA33",
"- c #FBC934",
"; c #FCCA35",
": c #FCCF36",
"> c #FDD93B",
", c #FEDB3C",
"< c #FFF23B",
"1 c #FFFD3D",
"2 c #FFFF3F",
"3 c #FFFF43",
"4 c #FFFF49",
"5 c #FFFF4A",
"6 c grey",
/* pixels */
"666666666666666666666666666666666666666666666666",
"666666666666666666666666666666666666666666666666",
"666666666666666666666666666666666666666666666666",
"666666666666666666666666666666666666666666666666",
"666666666666666666666666666666666666666666666666",
"666666666666666666666666666666666666666666666666",
"666666666666666666666666666666666666666666666666",
"666666666666666666666666666666666666666666666666",
"666666666666666666666666666666666666666666666666",
"666666666666666666666666666666666666666666666666",
"666666666666666666666666666666666666666666666666",
"666666666666666666666666666666666666666666666666",
"666666666666666666666666666666666666666666666666",
"666666666666666666666666666666666666666666666666",
"666666666666666666666666666666666666666666666666",
"666666666666666666666666666666666666666666666666",
"666666666666666666666666666666666666666666666666",
"666666666666666666666666666666666666666666666666",
"666666666666666666666      666666666666666666666",
"66666666666666666666 433335 66666666666666666666",
"6666666666666666666 41$%$*-+ 6666666666666666666",
"6666666666666666666 3$&<2-:O 6666666666666666666",
"6666666666666666666 3%<&;.>O 6666666666666666666",
"6666666666666666666 3$2;=X>O 6666666666666666666",
"6666666666666666666 3*-.X#,O 6666666666666666666",
"6666666666666666666 5-:>>,o@ 6666666666666666666",
"66666666666666666666 +OOOO@ 66666666666666666666",
"666666666666666666666      666666666666666666666",
"666666666666666666666666666666666666666666666666",
"666666666666666666666666666666666666666666666666",
"666666666666666666666666666666666666666666666666",
"666666666666666666666666666666666666666666666666",
"666666666666666666666666666666666666666666666666",
"666666666666666666666666666666666666666666666666",
"666666666666666666666666666666666666666666666666",
"666666666666666666666666666666666666666666666666",
"666666666666666666666666666666666666666666666666",
"666666666666666666666666666666666666666666666666",
"666666666666666666666666666666666666666666666666",
"666666666666666666666666666666666666666666666666",
"666666666666666666666666666666666666666666666666",
"666666666666666666666666666666666666666666666666",
"666666666666666666666666666666666666666666666666",
"666666666666666666666666666666666666666666666666",
"666666666666666666666666666666666666666666666666",
"666666666666666666666666666666666666666666666666",
"666666666666666666666666666666666666666666666666",
"666666666666666666666666666666666666666666666666"
};
