/* XPM */
static char *aecdbe4f645f4d8b8ae0aa431a335094SmiVllc1i93pv7Pp[] = {
/* columns rows colors chars-per-pixel */
"48 48 18 1 ",
"  c black",
". c #110A03",
"X c #3E3030",
"o c #494D4B",
"O c #6D5D5B",
"+ c #756C4A",
"@ c #767D7A",
"# c #853E33",
"$ c #F07508",
"% c #CA7538",
"& c #FBC531",
"* c #FFF23B",
"= c #9D916D",
"- c #F5B97D",
"; c #B0A28D",
": c #A9B1AE",
"> c #C4B493",
", c grey",
/* pixels */
",..............................................,",
".**.>>>>>>>>.------.********.******.;;;;;;;;.--.",
".&$.>======+.-%%%%#.*&&&&&&$.*&&&&$.;OOOOOOX.-%.",
".&$.>======+.-%%%%#.*&&&&&&$.*&&&&$.;OOOOOOX.-%.",
".$$.++++++++.######.$$$$$$$$.$$$$$$.XXXXXXXX.##.",
"................................................",
".----.****.**********.****.----------.****.>>>>.",
".-%%#.                                    .>==+.",
".-%%#. --..............................-- .>==+.",
".####. -#..............................-# .++++.",
"...... -#..............................-# ......",
".**.-- -#..............................-# **.**.",
".&$.-% .................................. &$.*&.",
".&$.-% ::..............................:: &$.*&.",
".&$.## ::..............................:: $$.*&.",
".$$... :@..............................:@ ...$$.",
"....** .................................. **....",
".;;.*& -#..............................-# &$.>>.",
".OX.*& -#..............................-# &$.>=.",
".OX.*& -#..............................-# &$.>=.",
".XX.$$ -#..............................-# $$.++.",
"...... -#..............................-# ......",
".>>>>. -#..............................-# .----.",
".>==+. -#.::........................::.-# .-%%#.",
".>==+. -#.@@........................@@.-# .-%%#.",
".++++. -#..............................-# .####.",
"...... -#..............................-# ......",
".--.** -#..............................-# >>.;;.",
".%#.*& -#..............................-# =+.;O.",
".%#.*& -#..............................-# =+.;O.",
".##.*& -#..............................-# =+.XX.",
"....$$ .................................. ++....",
".**... @o..............................@o ...**.",
".&$.;; oo..............................oo **.*&.",
".&$.;O oo..............................oo &$.*&.",
".&$.;O .................................. &$.*&.",
".$$.XX -#..............................-# $$.$$.",
"...... -#..............................-# ......",
".----. -#..............................-# .****.",
".-%%#. ##..............................## .*&&$.",
".-%%#.                                    .*&&$.",
".####.$$$$.++++++++++.XXXX.$$$$$$$$$$.####.$$$$.",
"................................................",
".**.********.******.--------.>>>>>>.********.>>.",
".&$.*&&&&&&$.*&&&&$.-%%%%%%#.>====+.*&&&&&&$.>=.",
".&$.*&&&&&&$.*&&&&$.-%%%%%%#.>====+.*&&&&&&$.>=.",
".$$.$$$$$$$$.$$$$$$.########.++++++.$$$$$$$$.++.",
",..............................................,"
};
