/* XPM */
static char *cf96763ced96473c9fa515b1598575f1Taws1Z3UCP9p6Rtt[] = {
/* columns rows colors chars-per-pixel */
"48 48 18 1 ",
"  c black",
". c #110A03",
"X c #3E3030",
"o c #494D4B",
"O c #6D5D5B",
"+ c #756C4A",
"@ c #767D7A",
"# c #853E33",
"$ c #F07508",
"% c #CA7538",
"& c #FBC531",
"* c #FFF23B",
"= c #9D916D",
"- c #F5B97D",
"; c #B0A28D",
": c #A9B1AE",
"> c #C4B493",
", c grey",
/* pixels */
",                                              ,",
" ** >>>>>>>> ------ ******** ****** ;;;;;;;; -- ",
" &$ >======+ -%%%%# *&&&&&&$ *&&&&$ ;OOOOOOX -% ",
" &$ >======+ -%%%%# *&&&&&&$ *&&&&$ ;OOOOOOX -% ",
" $$ ++++++++ ###### $$$$$$$$ $$$$$$ XXXXXXXX ## ",
"                                                ",
" ---- **** ********** **** ---------- **** >>>> ",
" -%%#                                      >==+ ",
" -%%#  ---- -----------  -----  ---- ----  >==+ ",
" ####  --%# --%%##-%%##  --%%#  %%## -%%%  ++++ ",
"       --%# --%%##-%%##  --%%#  %%## -%%%       ",
" ** --                                    ** ** ",
" &$ -% :::::::::::::@@@  ::::::::::::::@@ &$ *& ",
" &$ -% :::::::::::::@@@  ::::::::::::::@@ &$ *& ",
" &$ ## ::@@@@@@@@@@@@oo  ::@@@@@@@@@@@@@@ $$ *& ",
" $$    ::@@@@@@@@@@@@oo  ::@@@@@@@@@@@@@@    $$ ",
"    **                                    **    ",
" ;; *&                                    &$ >> ",
" OX *& --## --####-####  --###  #### -### &$ >= ",
" OX *& --%# --%%##-%%##  --%%#  %%## -%%% &$ >= ",
" XX $$ --%# --%%##-%%##  --%%#  %%## -%%% $$ ++ ",
"       --%# --%%##-..##  --..#  %%## -%%%       ",
" >>>>  --%# --%%##.::      ::   %%## -%%%  ---- ",
" >==+  --%# --%%##.:@      :@   %%## -%%%  -%%# ",
" >==+  --%# --%%##.:@      :@   %%## -%%%  -%%# ",
" ++++  --%# --%%##.:@      :@   %%## -%%%  #### ",
"       --%# --%%###..##  ##..#  %%## -%%%       ",
" -- ** --%# --%%##-####  --###  %%## -%%% >> ;; ",
" %# *& --%# --%%##-%%##  --%%#  %%## -%%% =+ ;O ",
" %# *& --%# --%%##-%%##  --%%#  %%## -%%% =+ ;O ",
" ## *&                                    =+ XX ",
"    $$                                    ++    ",
" **    ::@@@@@@@@@@@@oo  ::@@@@@@@@@@@@@@    ** ",
" &$ ;; ::@@@@@@@@@@@@oo  ::@@@@@@@@@@@@@@ ** *& ",
" &$ ;O @@oooooooooooooo  @@@ooooooooooooo &$ *& ",
" &$ ;O @@oooooooooooooo  @@@ooooooooooooo &$ *& ",
" $$ XX                                    $$ $$ ",
"       --## --####-####  --###  #### -###       ",
" ----  --%# --%%##-%%##  --%%#  %%## -%%%  **** ",
" -%%#  #### ###########  #####  #### ####  *&&$ ",
" -%%#                                      *&&$ ",
" #### $$$$ ++++++++++ XXXX $$$$$$$$$$ #### $$$$ ",
"                                                ",
" ** ******** ****** -------- >>>>>> ******** >> ",
" &$ *&&&&&&$ *&&&&$ -%%%%%%# >====+ *&&&&&&$ >= ",
" &$ *&&&&&&$ *&&&&$ -%%%%%%# >====+ *&&&&&&$ >= ",
" $$ $$$$$$$$ $$$$$$ ######## ++++++ $$$$$$$$ ++ ",
",                                              ,"
};
