/* XPM */
static char *result[] = {
/* columns rows colors chars-per-pixel */
"48 48 8 1 ",
"  c #110A03",
". c #494D4B",
"X c #767D7A",
"o c #853E33",
"O c #CA7538",
"+ c #F5B97D",
"@ c #A9B1AE",
"# c grey",
/* pixels */
"#                     ####                     #",
" ++++++  ++++++ ++++++    ++++++  ++++++ ++++++ ",
" ++++++  ++++++ ++++++    ++++++  ++++++ ++++++ ",
" ++OOOo  +OOOoo ++OOOo    ++OOOo  +OOOoo ++OOOo ",
" ++OOOo  +OOOoo ++OOOo    ++OOOo  +OOOoo ++OOOo ",
" ++OOOo  +OOOoo ++OOOo    ++OOOo  +OOOoo ++OOOo ",
"                                                ",
"                                                ",
" @@@@@@@@@@@@@@@@@@XXX    @@@@@@@@@@@@@@@@@@XXX ",
" @@@@@@@@@@@@@@@@@@XXX    @@@@@@@@@@@@@@@@@@XXX ",
" @@XXXXXXXXXXXXXXXXXX.    @@XXXXXXXXXXXXXXXXXX. ",
" @@XXXXXXXXXXXXXXXXXX.    @@XXXXXXXXXXXXXXXXXX. ",
" @@XXXXXXXXXXXXXXXXXX.    @@XXXXXXXXXXXXXXXXXX. ",
"                                                ",
"                                                ",
" ++oooo  +ooooo ++oooo    ++oooo  +ooooo ++oooo ",
" ++oooo  +ooooo ++oooo    ++oooo  +ooooo ++oooo ",
" ++OOOo  +OOOoo ++OOOo    ++OOOo  +OOOoo ++OOOo ",
" ++OOOo  +OOOoo ++OOOo    ++OOOo  +OOOoo ++OOOo ",
" ++OOOo  +OOOoo ++OOOo    ++OOOo  +OOOoo ++OOOo ",
" ++OOOo  +OOOoo ++   o    ++   o  +OOOoo ++OOOo ",
" ++OOOo  +OOOoo ++   o    ++   o  +OOOoo ++OOOo ",
" ++OOOo  +OOOoo   @@@       @@@   +OOOoo ++OOOo ",
" ++OOOo  +OOOoo   @@@       @@@   +OOOoo ++OOOo ",
" ++OOOo  +OOOoo   @XX       @XX   +OOOoo ++OOOo ",
" ++OOOo  +OOOoo   @XX       @XX   +OOOoo ++OOOo ",
" ++OOOo  +OOOoo oo   o    oo   o  +OOOoo ++OOOo ",
" ++OOOo  +OOOoo oo   o    oo   o  +OOOoo ++OOOo ",
" ++OOOo  +OOOoo ++oooo    ++oooo  +OOOoo ++OOOo ",
" ++OOOo  +OOOoo ++oooo    ++oooo  +OOOoo ++OOOo ",
" ++OOOo  +OOOoo ++OOOo    ++OOOo  +OOOoo ++OOOo ",
" ++OOOo  +OOOoo ++OOOo    ++OOOo  +OOOoo ++OOOo ",
" ++OOOo  +OOOoo ++OOOo    ++OOOo  +OOOoo ++OOOo ",
"                                                ",
"                                                ",
" @@XXXXXXXXXXXXXXXXXX.    @@XXXXXXXXXXXXXXXXXX. ",
" @@XXXXXXXXXXXXXXXXXX.    @@XXXXXXXXXXXXXXXXXX. ",
" @@XXXXXXXXXXXXXXXXXX.    @@XXXXXXXXXXXXXXXXXX. ",
" XXX..................    XXX.................. ",
" XXX..................    XXX.................. ",
"                                                ",
"                                                ",
" ++oooo  +ooooo ++oooo    ++oooo  +ooooo ++oooo ",
" ++OOOo  +OOOoo ++OOOo    ++OOOo  +OOOoo ++OOOo ",
" ++OOOo  +OOOoo ++OOOo    ++OOOo  +OOOoo ++OOOo ",
" oooooo  oooooo oooooo    oooooo  oooooo oooooo ",
" oooooo  oooooo oooooo    oooooo  oooooo oooooo ",
"#                     ####                     #"
};
