/* XPM */
static char *result[] = {
/* columns rows colors chars-per-pixel */
"48 48 10 1 ",
"  c #252329",
". c #2D2C37",
"X c #3B3B4D",
"o c #3E4652",
"O c #615E70",
"+ c #968C94",
"@ c #BDB3AC",
"# c #E9DEC9",
"$ c #F7ECD5",
"% c grey",
/* pixels */
"%%%%%%%%%%%%%%%%%%%%%%%%%%%%%%%%%%%%%%%%%%%%%%%%",
"%%%%%%%%%%%%%%%%%%%%%%%%%%%%%%%%%%%%%%%%%%%%%%%%",
"%%%%%%%%%%%%%%%%%%%%%%%%%%%%%%%%%%%%%%%%%%%%%%%%",
"%%%%%%%%%%%%%%%%%%%%%%%%%%%%%%%%%%%%%%%%%%%%%%%%",
"%%%%%%%%%%%%%%%%%%%%%%%%%%%%%%%%%%%%%%%%%%%%%%%%",
"%%%%%o%%%%%%%%%%%%%%%%%%%%%%%%%%%%%%%%%%%%%%%%%%",
"%%%ooo%%%%%%%%%%%%%%%%%%%%%%%%%%%%%%%%%%%o%%%%%%",
"%%%ooo%%%%%%%%%%%%%%%%%%%%%%%%%%%%%%%%%%%ooo%%%%",
"%%%ooooo%%%%%%%%%%%%%%%%%%%%%%%%%%%%%%%%%ooo%%%%",
"%%%ooooo%%% %%%%%%%%%%%%%%%%%%%%%%%%%%%ooooo%%%%",
"%%%oooooo%% %%%%%%%%%%%%%%%%%%%%%%% %%%ooooo%%%%",
"%%%oooooo%% %%%%%%%%%%%%%%%%%%%%%%% %%oooooo%%%%",
"%%%oooooooo ooooo%%%%%%%%%%%%%%%%%% %%oooooo%%%%",
"%%%oooooooo ooo%%%%%%%%%%%%%%%ooooo oooooooo%%%%",
"%%%%%oooo%% %%%%%%%%%%%%%%%%%%%%ooo oooooooo%%%%",
"%%%%%oooo%% %%%%%%%%%%%%%%%%%%%%%%% %%oooo%%%%%%",
"%%%%%ooo%%% %%%%%%%%@@$$$$@@%%%%%%% %%oooo%%%%%%",
"%%%%%%oo%%% %%%%%%%@$$$$$$$$@%%%%%% %%%ooo%%%%%%",
"%%%%%%%%%%% %%%%%%%$$$$$$$$$$%%%%%% %%%oo%%%%%%%",
"%%%%%%%%%%% %%%%%%%$$$$$$$$$$%%%%%% %%%%%%%%%%%%",
"%%%%%%%%%%% %%%%%OOX$$OXXXOO$%%%%%% %%%%%%%%%%%%",
"%%%%%%%%%%% %%%%%%%X$$$XXX$$$%%%%%% %%%%%%%%%%%%",
"%%%%%%%%%%% %%%%%%%$OO$$$$$$@%%%%%% %%%%%%%%%%%%",
"%%%%%%%%%%% %%%%%%%$OO$$$$$$@%%%%%% %%%%%%%%%%%%",
"%%%%%%%%%%% %%%%%%%@$$$$$@@@%%%%%%% %%%%%%%%%%%%",
"%%%%%%%%%%% %%%%%%%%$$@$$OOO%%%%%%% %%%%%%%%%%%%",
"%%%%%%%%%%% %%%%%%%%%%$OOO@@@@@$$$% %%%%%%%%%%%%",
"%%%%%%%%%%% %%%%%%%%%%$OOO@@@@@$$$% %%%%%%%%%%%%",
"%%%%%%%%%%% %%%%%%%%%%$$$$$$$@@$$$$ %%%%%%%%%%%%",
"%%%%%%%%%%%XXX%%%%%%%%O@@$@@OOO%$$$.$$%%%%%%%%%%",
"%%%%%%%%%%%XXX%%%%%%%%O@@$@@OOO%$$$ $$%%%%%%%%%%",
"%%%%%%%%%%%XXXXXXXXXXX$$$$$$$@@%%%$ $$%%%%%%%%%%",
"%%%%%%%%%%% %%XXXXXXOO@$$@OOO%%%%%$ $$%%%%%%%%%%",
"%%%%%%%%%%% %%%%%%%%$$$$$$$$@%%%$$$#$$%%%%%%%%%%",
"%%%%%%%%%%% %%%%%%%%$$$$$$$$@%%%$$$$$$%%%%%%%%%%",
"%%%%%%%%%%% %%%%%%%%%%%OOO%%%%%%%%$$$$%%%%%%%%%%",
"%%%%%%%%%%% %%%%%%%%%%%OOO%%%%%%%%$ %%%%%%%%%%%%",
"%%%%%%%%%%% %%%%%%%%+++++$$$$%%%%%% %%%%%%%%%%%%",
"%%%%%%%%%%% %%%%%%%%+++++$$$$%%%%%% %%%%%%%%%%%%",
"%%%%%%%%%%% %%%%%%%%+++$$$$$$%%%%%% %%%%%%%%%%%%",
"%%%%%%%%%%% %%%%%%%%OOO%%%$$$$$%%%% %%%%%%%%%%%%",
"%%%%%%%%%%% %%%%%%%%OOO%%%$$$$$%%%% %%%%%%%%%%%%",
"%%%%%%%%%%% %%%%%%%%OOO%%%$$$$$%%%% %%%%%%%%%%%%",
"%%%%%%%%%%% %%%%%%%%%%OOO%%%$$$$%%% %%%%%%%%%%%%",
"%%%%%%%%%%% %%%%%%%%%%OOO%%%%$$$%%% %%%%%%%%%%%%",
"%%%%%%%%%%% %%%%%%%%%%OOO%%%%%%$$$% %%%%%%%%%%%%",
"%%%%%%%%%%% %%%%%%%%%%OOO%%%%%%$$$% %%%%%%%%%%%%",
"%%%%%%%%%%% %%%%%%%%OOOOO%%%%%%$$$% %%%%%%%%%%%%"
};
