/* XPM */
static char *dd96ba7378154fbc80b84ed7ef1370770abizYrT3h4QWkIQ[] = {
/* columns rows colors chars-per-pixel */
"48 48 15 1 ",
"  c #040302",
". c #1E1006",
"X c #1B1C20",
"o c #232428",
"O c #3E2E26",
"+ c #531A03",
"@ c #652207",
"# c #48372F",
"$ c gray37",
"% c gray47",
"& c #9A695B",
"* c #B68752",
"= c #BB8F82",
"- c #B1B1B1",
"; c grey",
/* pixels */
";;;;;;;;;;;;;;;;;;;;;;;;;;;;;;;;;;;;;;;;;;;;;;;;",
";;;;;;;;;;;;;;;;;;;;;;;;;;;;;;;;;;;;;;;;;;;;;;;;",
";;;;;;;;;;;;;;;;;;;;;;;;;;;;;;;;;;;;;;;;;;;;;;;;",
";;;;;;;;;;;;;;;;;;;;;;;;;;;;;;;;;;;;;;;;;;;;;;;;",
";;;;;;;;;;;;;;;;;;;;;;;;;;;;;;;;;;;;;;;;;;;;;;;;",
";;;;;;;;;;;;;;;;;;;;;;;;;;;;;;;;;;;;;;;;;;;;;;;;",
";;;;;;;;;;;;;;;;;;;;;;;;;;;;;;;;;;;;;;;;;;;;;;;;",
";;;;;;;;;;;;;;;;;;;;;;;;;;;;;;;;;;;;;;;;;;;;;;;;",
";;;;;;;;;;;;;;;;;;;;;;     ;;;;;;;;;;;;;;;;;;;;;",
";;;;;;;;;;;;;;;;;;;;;;;    ;;;;;;;;;;;;;;;;;;;;;",
";;;;;;;;;;;;;;;;;;;;;;;=== ;;;;;;;;;;;;;;;;;;;;;",
";;;;;;;;;;;;;;;;;;;;;;;====;;;;;;;;;;;;;;;;;;;;;",
";;;;;;;;;;;;;;;;;;;;;;o   &;;;;;;;;;;;;;;;;;;;;;",
";;;;;;;;;;;;;;;;;;;;;;    ;;;;;;;;;;;;;;;;;;;;;;",
";;;;;;;;;;;;;;;;;;;;;@+  o+;;;;;;;;;;;;;;;;;;;;;",
";;;;;;;;;;;;;;;;;;;;;@@+o++@@@;;;;;;;;;;;;;;;;;;",
";;;;;;;;;;;;;;;;;;;;@@@+@@@@@*o;;;;;;;;;;;;;;;;;",
";;;;;;;;;;;;;;;;;;;;*@@@@@@@*oX;;;;;;;;;;;;;;;;;",
";;;;;;;;;;;;;;;;;;;=&*@@@@*XoX==;;;;;;;;;;;;;;;;",
";;;;;;;;;;;;;;;;;;;=&X***XXooX==;;;;;;;;;;;;;;;;",
";;;;;;;;;;;;;;;;;;;=&oooooooX&==;;;;;;;;;;;;;;;;",
";;;;;;;;;;;;;;;;;;;=&XooooooX&==;;;;;;;;;;;;;;;;",
";;;;;;;;;;;;;;;;;;;=&XoooooXX&==;;;;;;;;;;;;;;;;",
";;;;;;;;;;;;;;;;;;o&&XoooooX;&==;;;;;;;;;;;;;;;;",
";;;;;;;;;;;;;;;;;;oXXooooooX;;==;;;;;;;;;;;;;;;;",
";;;;;;;;;;;;;;;;;;oX;oooooXX;;Xo;;;;;;;;;;;;;;;;",
";;;;;;;;;;;;;;;;;;XX;..$.oXX;;Xo;;;;;;;;;;;;;;;;",
";;;;;;;;;;;;;;;;;;X;;..$.....;oo;;;;;;;;;;;;;;;;",
";;;;;;;;;;;;;;;;;oX;;X$$.....Xo;;;;;;;;;;;;;;;;;",
";;;;;;;;;;;;;;;;;=&&oooXX....Xoo;;;;;;;;;;;;;;;;",
";;;;;;;;;;;;----------------X=Xo;;;;;;;;;;;;;;;;",
";;;;;;;;;;;%%%%%%%%%%%%%%%%-.&=.;;;;;;;;;;;;;;;;",
";;;;;;;;;;;;;;;;;;;;ooooooXO#;;;;;;;;;;;;;;;;;;;",
";;;;;;;;;;;;;;;;;;;oooooooXO#;;;;;;;;;;;;;;;;;;;",
";;;;;;;;;;;;;;;;;;;ooooooXX###;;;;;;;;;;;;;;;;;;",
";;;;;;;;;;;;;;;;;;oooooooXO###;;;;;;;;;;;;;;;;;;",
";;;;;;;;;;;;;;;;;;;;OXXXX;O###;;;;;;;;;;;;;;;;;;",
";;;;;;;;;;;;;;;;;;;;;#OO;;####;;;;;;;;;;;;;;;;;;",
";;;;;;;;;;;;;;;;;;;;;##O;;;###;;;;;;;;;;;;;;;;;;",
";;;;;;;;;;;;;;;;;;;;;##O;;;###;;;;;;;;;;;;;;;;;;",
";;;;;;;;;;;;;;;;;;;;;###;;;###;;;;;;;;;;;;;;;;;;",
";;;;;;;;;;;;;;;;;;;;;;##;;;###;;;;;;;;;;;;;;;;;;",
";;;;;;;;;;;;;;;;;;;;;;#X;;;Xoo;;;;;;;;;;;;;;;;;;",
";;;;;;;;;;;;;;;;;;;;;;oo;;;Xoo;;;;;;;;;;;;;;;;;;",
";;;;;;;;;;;;;;;;;;;;;;Xo;;;Xoo;;;;;;;;;;;;;;;;;;",
";;;;;;;;;;;;;;;;;;;;;ooo;;;Xoo;;;;;;;;;;;;;;;;;;",
";;;;;;;;;;;;;;;;;;;;ooXX;;Xooo;;;;;;;;;;;;;;;;;;",
";;;;;;;;;;;;;;;;;;;;;;;;;;;;;;;;;;;;;;;;;;;;;;;;"
};
