/* XPM */
static char *_e373393b7e344a8bb9acc885ad0fd00scNlgMC4ojd847Ew[] = {
/* columns rows colors chars-per-pixel */
"48 48 15 1 ",
"  c #040302",
". c #1E1006",
"X c #1B1C20",
"o c #232428",
"O c #3E2E26",
"+ c #531A03",
"@ c #652207",
"# c #48372F",
"$ c gray37",
"% c gray47",
"& c #9A695B",
"* c #B68752",
"= c #BB8F82",
"- c #B1B1B1",
"; c grey",
/* pixels */
";;;;;;;;;;;;;;;;;;;;;;;;;;;;;;;;;;;;;;;;;;;;;;;;",
";;;;;;;;;;;;;;;;;;;;;;;;;;;;;;;;;;;;;;;;;;;;;;;;",
";;;;;;;;;;;;;;;;;;;;;;;;;;;;;;;;;;;;;;;;;;;;;;;;",
";;;;;;;;;;;;;;;;;;;;;;;;;;;;;;;;;;;;;;;;;;;;;;;;",
";;;;;;;;;;;;;;;;;;;;;;;;;;;;;;;;;;;;;;;;;;;;;;;;",
";;;;;;;;;;;;;;;;;;;;;;;;;;;;;;;;;;;;;;;;;;;;;;;;",
";;;;;;;;;;;;;;;;;;;;;;;;;;;;;;;;;;;;;;;;;;;;;;;;",
";;;;;;;;;;;;;;;;;;;;;;;;;;;;;;;;;;;;;;;;;;;;;;;;",
";;;;;;;;;;;;;;;;;;;;;     ;;;;;;;;;;;;;;;;;;;;;;",
";;;;;;;;;;;;;;;;;;;;;    ;;;;;;;;;;;;;;;;;;;;;;;",
";;;;;;;;;;;;;;;;;;;;; ===;;;;;;;;;;;;;;;;;;;;;;;",
";;;;;;;;;;;;;;;;;;;;;====;;;;;;;;;;;;;;;;;;;;;;;",
";;;;;;;;;;;;;;;;;;;;;&   o;;;;;;;;;;;;;;;;;;;;;;",
";;;;;;;;;;;;;;;;;;;;;;    ;;;;;;;;;;;;;;;;;;;;;;",
";;;;;;;;;;;;;;;;;;;;;+o  +@;;;;;;;;;;;;;;;;;;;;;",
";;;;;;;;;;;;;;;;;;@@@++o+@@;;;;;;;;;;;;;;;;;;;;;",
";;;;;;;;;;;;;;;;;o*@@@@@+@@@;;;;;;;;;;;;;;;;;;;;",
";;;;;;;;;;;;;;;;;Xo*@@@@@@@*;;;;;;;;;;;;;;;;;;;;",
";;;;;;;;;;;;;;;;==XoX*@@@@*&=;;;;;;;;;;;;;;;;;;;",
";;;;;;;;;;;;;;;;==XooXX***X&=;;;;;;;;;;;;;;;;;;;",
";;;;;;;;;;;;;;;;==&Xooooooo&=;;;;;;;;;;;;;;;;;;;",
";;;;;;;;;;;;;;;;==&XooooooX&=;;;;;;;;;;;;;;;;;;;",
";;;;;;;;;;;;;;;;==&XXoooooX&=;;;;;;;;;;;;;;;;;;;",
";;;;;;;;;;;;;;;;==&;XoooooX&&o;;;;;;;;;;;;;;;;;;",
";;;;;;;;;;;;;;;;==;;XooooooXXo;;;;;;;;;;;;;;;;;;",
";;;;;;;;;;;;;;;;oX;;XXooooo;Xo;;;;;;;;;;;;;;;;;;",
";;;;;;;;;;;;;;;;oX;;XXo.$..;XX;;;;;;;;;;;;;;;;;;",
";;;;;;;;;;;;;;;;oo;.....$..;;X;;;;;;;;;;;;;;;;;;",
";;;;;;;;;;;;;;;;;oX.....$$X;;Xo;;;;;;;;;;;;;;;;;",
";;;;;;;;;;;;;;;;ooX....XXooo&&=;;;;;;;;;;;;;;;;;",
";;;;;;;;;;;;;;;;oX=X----------------;;;;;;;;;;;;",
";;;;;;;;;;;;;;;;.=&.-%%%%%%%%%%%%%%%%;;;;;;;;;;;",
";;;;;;;;;;;;;;;;;;;#OXoooooo;;;;;;;;;;;;;;;;;;;;",
";;;;;;;;;;;;;;;;;;;#OXooooooo;;;;;;;;;;;;;;;;;;;",
";;;;;;;;;;;;;;;;;;###XXoooooo;;;;;;;;;;;;;;;;;;;",
";;;;;;;;;;;;;;;;;;###OXooooooo;;;;;;;;;;;;;;;;;;",
";;;;;;;;;;;;;;;;;;###O;XXXXO;;;;;;;;;;;;;;;;;;;;",
";;;;;;;;;;;;;;;;;;####;;OO#;;;;;;;;;;;;;;;;;;;;;",
";;;;;;;;;;;;;;;;;;###;;;O##;;;;;;;;;;;;;;;;;;;;;",
";;;;;;;;;;;;;;;;;;###;;;O##;;;;;;;;;;;;;;;;;;;;;",
";;;;;;;;;;;;;;;;;;###;;;###;;;;;;;;;;;;;;;;;;;;;",
";;;;;;;;;;;;;;;;;;###;;;##;;;;;;;;;;;;;;;;;;;;;;",
";;;;;;;;;;;;;;;;;;ooX;;;X#;;;;;;;;;;;;;;;;;;;;;;",
";;;;;;;;;;;;;;;;;;ooX;;;oo;;;;;;;;;;;;;;;;;;;;;;",
";;;;;;;;;;;;;;;;;;ooX;;;oX;;;;;;;;;;;;;;;;;;;;;;",
";;;;;;;;;;;;;;;;;;ooX;;;ooo;;;;;;;;;;;;;;;;;;;;;",
";;;;;;;;;;;;;;;;;;oooX;;XXoo;;;;;;;;;;;;;;;;;;;;",
";;;;;;;;;;;;;;;;;;;;;;;;;;;;;;;;;;;;;;;;;;;;;;;;"
};
