/* XPM */
static char *result[] = {
/* columns rows colors chars-per-pixel */
"48 48 4 1 ",
"  c #110A03",
". c #A9B1AE",
"X c #D5DFDC",
"o c grey",
/* pixels */
"oo                                            oo",
"o ............................................ o",
" ..X...X..XXX.XXXX.X...X..X.XX.X..X.X..XXX..... ",
" .XX...X..XXXXX..XXX...X..XXXXXX..XXX..X.X...X. ",
" ..X...XXXX...X..X.X...XXXXX...XXXXXXXXXXX...X. ",
" .XXXXXXX.X...XXXXXXXXXXXX.X...X.X...X..XXXXXX. ",
" .X..X.XXXX...X.X..X.X...XXX...XXX...X..X..XX.. ",
" .X..XXX..XXXXXXX..XXX...XXXXXXXXX...XXXX..XXX. ",
" .XXXXXX..XXXX.XXXXXXX...X..X.X..XXXXX.XXXXX... ",
" ..X...XXXX..XXXXX..XXXXXX..XXX..XX..XXX...X... ",
" .XX...X.XX..X...X..X.X..XXXXXXXXXX..XXX...XXX. ",
" .XX...XXXXXXX...XXXXXX..XX.X...X.XXXXXX...XX.. ",
" ..XXXXX...X.X...X...XXXXXXXX...XXXX...XXXXXXX. ",
" .XXX.XX...XXXXXXX...X..X...X...X..X...XX.X.... ",
" ...XXXX...X..XX.X...X..X...XXXXX..X...XXXX.... ",
" ...XX.XXXXX..XXXXXXXXXXX...X..XXXXXXXXX..X.... ",
" .XXXXXX..XXXXX.XX..X.XXXXXXX..X...X..XX..XXXX. ",
" .X...XX..X...XXXX..XXX...X.XXXX...X..XXXXXXX.. ",
" .X...XXXXX...X..XXXXXX...XXXX.X...XXXX.X...XX. ",
" .X...X.XXX...X..X.X..X...X..XXXXXXXXXXXX...XX. ",
" .XXXXXXX.XXXXXXXXXX..XXXXX..X...X..X...X...X.. ",
" ..X..XXXXX..X.X...XXXXX..XXXX...X..X...XXXXXX. ",
" .XX..X...X..XXX...X...X..XX.X...XXXX...XX.X... ",
" .XXXXX...XXXXXX...X...XXXXXXXXXXX.XXXXXXXXX... ",
" ....XX...XX...XXXXX...X.XX.X..XXXXX..X...XXXX. ",
" ....XXXXXXX...X..XXXXXXXXXXX..X...X..X...X..X. ",
" ....X.XX..X...X..X.XX..X...XXXX...XXXX...X..X. ",
" .XXXXXXX..XXXXXXXXXXX..X...X.XX...XX.XXXXXXXX. ",
" ..XX...XXXX..X.X...XXXXX...XXXXXXXXXXXX...XX.. ",
" .XXX...X.XX..XXX...X.XXXXXXX...XXX.X..X...XXX. ",
" ...X...XXXXXXXXX...XXX...X.X...XXXXX..X...X... ",
" ...XXXXXX...X..XXXXXXX...XXX...X..XXXXXXXXX... ",
" .XXX.X..X...X..XX..X.X...XXXXXXX..X.X...X.XXX. ",
" ..XXXX..X...XXXXX..XXXXXXXX..X.XXXXXX...XXXXX. ",
" .XXXXXXXXXXXXXX.XXXX..XXX.X..XXXXX..X...XX.X.. ",
" ....X..X.X..XXXXXX.X..X.XXXXXX...X..XXXXXXXXX. ",
" ....X..XXX..X...XXXXXXXXXX...X...XXXX..X.X.... ",
" ....XXXXXXXXX...X...X.X..X...X...XX.X..XXX.... ",
" .XXXXX.X...XX...X...XXX..X...XXXXXXXXXXXXX.... ",
" .XX.XXXX...XXXXXX...XXXXXXXXXX.XX..XXX...XXXX. ",
" ..XXX..X...X.X..XXXXX..X...XXXXXX..X.X...X.X.. ",
" .XXXX..XXXXXXX..X.XXX..X...X..X.XXXXXX...XXXX. ",
" ...XXXXXX.X.XXXXXXX.XXXX...X..XXXXX..XXXXXX... ",
" ...XX...XXXXXX...XXXXX.XXXXXXXX...X..XX...X... ",
" .XXXX...X..XXX...X..XXXX..X.XXX...XXXXX...XXX. ",
" ..X.X...X..X.X...X..X.XX..XXX.X...XXX.X...XX.. ",
"o ............................................ o",
"oo                                            oo"
};
